<svg id="Layer_1" data-name="Layer 1" xmlns="http://www.w3.org/2000/svg" viewBox="0 0 24 24"><title>mobile, phone, smartphone, device, gadget</title><path d="M17.88,0H6.12A2.12,2.12,0,0,0,4,2.12V21.88A2.12,2.12,0,0,0,6.12,24H17.88A2.12,2.12,0,0,0,20,21.88V2.12A2.12,2.12,0,0,0,17.88,0ZM14,2V3H10V2Zm4,19.88a.12.12,0,0,1-.12.12H6.12A.12.12,0,0,1,6,21.88V2.12A.12.12,0,0,1,6.12,2H8V3.31A1.69,1.69,0,0,0,9.69,5h4.62A1.69,1.69,0,0,0,16,3.31V2h1.88a.12.12,0,0,1,.12.12Z" id="id_101" style="fill: rgb(238, 238, 238);"></path></svg>