<svg xmlns="http://www.w3.org/2000/svg" xml:space="preserve" width="71.9666mm" height="71.9666mm" version="1.1" style="shape-rendering:geometricPrecision; text-rendering:geometricPrecision; image-rendering:optimizeQuality; fill-rule:evenodd; clip-rule:evenodd" viewBox="0 0 7197 7197" xmlns:xlink="http://www.w3.org/1999/xlink">
<defs>
<style type="text/css">
   
    .fil0 {fill:#333333}
    .fil1 {fill:white}
   
  </style>
</defs>
<g id="Layer_x0020_1">
<metadata id="CorelCorpID_0Corel-Layer"></metadata>
<circle class="fil0" cx="3598" cy="3598" r="3598" id="id_101" style="fill: rgb(131, 71, 148);"></circle>
<path class="fil1" d="M4671 4846l-2146 0c-35,0 -63,-28 -63,-63l0 -2175c0,-35 28,-63 63,-63l2143 0c35,0 63,28 63,63l0 2178c0,35 -28,60 -60,60zm-190 920l-1762 0c-296,0 -539,-240 -539,-536l0 -3260c0,-296 243,-539 539,-539l1762 0c296,0 536,243 536,539l0 3260c0,296 -243,536 -536,536zm-1766 -4212c-229,0 -415,187 -415,416l0 324 2590 0 0 -324c0,-229 -187,-416 -412,-416l-1763 0zm-415 867l0 2552 2590 0 0 -2552 -2590 0zm0 2679l0 130c0,229 186,412 415,412l1763 0c229,0 412,-186 412,-412l0 -130 -2590 0zm1297 493c-127,0 -233,-95 -233,-208 0,-116 102,-208 233,-208 130,0 232,95 232,208 0,113 -102,208 -232,208zm0 -292c-60,0 -110,38 -110,84 0,46 50,85 110,85 59,0 109,-39 109,-85 0,-49 -50,-84 -109,-84zm320 -3412l-641 0c-35,0 -64,-28 -64,-63 0,-36 29,-64 64,-64l641 0c36,0 64,28 64,64 0,35 -28,63 -64,63zm-320 2594c-420,0 -758,-342 -758,-758 0,-155 46,-303 134,-430l67 -95c10,-14 24,-25 38,-25 18,-3 32,0 46,11l191 134c28,21 35,56 14,84l-64 92c-46,67 -70,148 -70,229 0,222 180,406 402,406 222,0 405,-184 405,-406 0,-81 -25,-162 -74,-229l-64 -95c-10,-14 -14,-32 -10,-46 3,-14 10,-32 25,-39l193 -134c14,-10 32,-14 46,-10 18,3 32,10 39,25l67 95c88,123 134,275 134,430 0,419 -342,761 -761,761zm-494 -1167l-32 46c-74,106 -112,233 -112,360 0,352 285,634 634,634 349,0 634,-285 634,-634 0,-131 -38,-258 -109,-360 -10,-15 -21,-30 -32,-46l-91 64 32 42c63,88 95,190 95,300 0,292 -236,528 -529,528 -289,0 -525,-236 -525,-528 0,-106 32,-212 92,-300l31 -46 -88 -60zm592 501l-197 0c-35,0 -64,-28 -64,-64l0 -782c0,-35 29,-63 64,-63l197 0c35,0 64,28 64,63l0 786c0,35 -29,60 -64,60zm-134 -124l74 0 0 -659 -74 0 0 659zm-972 1030l2019 0 0 -2052 -2019 0 0 2052z" id="id_102"></path>
</g>
</svg>